<mxfile host="65bd71144e">
    <diagram id="AFa4Uq4wO-tZ9ithQFFD" name="Page-1">
        <mxGraphModel dx="4782" dy="2329" grid="0" gridSize="10" guides="1" tooltips="1" connect="1" arrows="1" fold="1" page="1" pageScale="1" pageWidth="1654" pageHeight="1169" background="#ffffff" math="0" shadow="0">
            <root>
                <mxCell id="0"/>
                <mxCell id="1" parent="0"/>
                <mxCell id="80" value="" style="rounded=0;whiteSpace=wrap;html=1;fontSize=32;fillColor=#fad7ac;strokeColor=#b46504;" vertex="1" parent="1">
                    <mxGeometry x="207" y="557" width="330" height="284" as="geometry"/>
                </mxCell>
                <mxCell id="78" value="" style="rounded=0;whiteSpace=wrap;html=1;fontSize=32;fillColor=#b1ddf0;strokeColor=#10739e;" vertex="1" parent="1">
                    <mxGeometry x="631" y="561" width="404" height="324" as="geometry"/>
                </mxCell>
                <mxCell id="77" value="" style="rounded=0;whiteSpace=wrap;html=1;fontSize=32;fillColor=#fad7ac;strokeColor=#b46504;" vertex="1" parent="1">
                    <mxGeometry x="1175" y="356" width="455" height="217" as="geometry"/>
                </mxCell>
                <mxCell id="76" value="" style="rounded=0;whiteSpace=wrap;html=1;fontSize=32;fillColor=#d0cee2;strokeColor=#56517e;" vertex="1" parent="1">
                    <mxGeometry x="1172" y="-10" width="457" height="302" as="geometry"/>
                </mxCell>
                <mxCell id="75" value="" style="rounded=0;whiteSpace=wrap;html=1;fontSize=32;fillColor=#fad9d5;strokeColor=#ae4132;" vertex="1" parent="1">
                    <mxGeometry x="911" y="173" width="261" height="318" as="geometry"/>
                </mxCell>
                <mxCell id="74" value="" style="rounded=0;whiteSpace=wrap;html=1;fontSize=32;fillColor=#bac8d3;strokeColor=#23445d;" vertex="1" parent="1">
                    <mxGeometry x="725" y="-188" width="120" height="124" as="geometry"/>
                </mxCell>
                <mxCell id="73" value="" style="rounded=0;whiteSpace=wrap;html=1;fontSize=32;fillColor=#bac8d3;strokeColor=#23445d;" vertex="1" parent="1">
                    <mxGeometry x="484" y="-181" width="120" height="124" as="geometry"/>
                </mxCell>
                <mxCell id="72" value="" style="rounded=0;whiteSpace=wrap;html=1;fontSize=32;fillColor=#bac8d3;strokeColor=#23445d;" vertex="1" parent="1">
                    <mxGeometry x="224" y="-179" width="120" height="124" as="geometry"/>
                </mxCell>
                <mxCell id="70" value="" style="rounded=0;whiteSpace=wrap;html=1;fontSize=32;fillColor=#d0cee2;strokeColor=#56517e;" vertex="1" parent="1">
                    <mxGeometry x="189" y="-48" width="713" height="261" as="geometry"/>
                </mxCell>
                <mxCell id="67" value="" style="group" vertex="1" connectable="0" parent="1">
                    <mxGeometry x="235" y="212.5" width="668" height="341.5" as="geometry"/>
                </mxCell>
                <mxCell id="82" value="" style="rounded=0;whiteSpace=wrap;html=1;fontSize=32;fillColor=#d0cee2;strokeColor=#56517e;" vertex="1" parent="67">
                    <mxGeometry x="-125" y="162" width="132" height="164" as="geometry"/>
                </mxCell>
                <mxCell id="64" value="" style="rounded=0;whiteSpace=wrap;html=1;fontSize=15;fillColor=#b0e3e6;strokeColor=#0e8088;labelPosition=right;verticalLabelPosition=bottom;align=left;verticalAlign=top;" vertex="1" parent="67">
                    <mxGeometry x="7" width="661" height="341.5" as="geometry"/>
                </mxCell>
                <mxCell id="66" value="Coeur de réseau" style="text;html=1;strokeColor=none;fillColor=none;align=center;verticalAlign=middle;whiteSpace=wrap;rounded=0;fontSize=32;fontColor=#006600;" vertex="1" parent="67">
                    <mxGeometry y="14.5" width="252" height="30" as="geometry"/>
                </mxCell>
                <mxCell id="27" value="&lt;font style=&quot;font-size: 15px;&quot; color=&quot;#000000&quot;&gt;Bordure&lt;/font&gt;" style="shape=mxgraph.cisco.routers.router;sketch=0;html=1;pointerEvents=1;dashed=0;fillColor=#a20025;strokeColor=#6F0000;strokeWidth=2;verticalLabelPosition=bottom;verticalAlign=top;align=center;outlineConnect=0;fontColor=#ffffff;" vertex="1" parent="67">
                    <mxGeometry x="-36" y="125.5" width="78" height="53" as="geometry"/>
                </mxCell>
                <mxCell id="96" value="10.255.255.252/30" style="text;html=1;strokeColor=none;fillColor=none;align=center;verticalAlign=middle;whiteSpace=wrap;rounded=0;fontSize=14;fontColor=#000000;" vertex="1" parent="67">
                    <mxGeometry x="-107" y="224.5" width="60" height="30" as="geometry"/>
                </mxCell>
                <mxCell id="102" value="X/29" style="text;html=1;strokeColor=none;fillColor=none;align=center;verticalAlign=middle;whiteSpace=wrap;rounded=0;fontSize=14;fontColor=#000000;" vertex="1" parent="67">
                    <mxGeometry x="581" y="14.5" width="60" height="30" as="geometry"/>
                </mxCell>
                <mxCell id="105" value=".253" style="text;html=1;strokeColor=none;fillColor=none;align=center;verticalAlign=middle;whiteSpace=wrap;rounded=0;fontSize=14;fontColor=#000000;" vertex="1" parent="67">
                    <mxGeometry x="-118" y="296" width="60" height="30" as="geometry"/>
                </mxCell>
                <mxCell id="112" value="10.255.255.232/29" style="text;html=1;strokeColor=none;fillColor=none;align=center;verticalAlign=middle;whiteSpace=wrap;rounded=0;fontSize=14;fontColor=#000000;" vertex="1" parent="67">
                    <mxGeometry x="126" y="229" width="60" height="30" as="geometry"/>
                </mxCell>
                <mxCell id="2" value="&lt;font color=&quot;#000000&quot;&gt;Visiteurs&lt;/font&gt;" style="shape=mxgraph.cisco.routers.wireless_router;sketch=0;html=1;pointerEvents=1;dashed=0;fillColor=#036897;strokeColor=#ffffff;strokeWidth=2;verticalLabelPosition=bottom;verticalAlign=top;align=center;outlineConnect=0;" vertex="1" parent="1">
                    <mxGeometry x="252" y="-97" width="78" height="77" as="geometry"/>
                </mxCell>
                <mxCell id="3" value="Conférenciers/Exposants" style="shape=mxgraph.cisco.routers.wireless_router;sketch=0;html=1;pointerEvents=1;dashed=0;fillColor=#036897;strokeColor=#ffffff;strokeWidth=2;verticalLabelPosition=bottom;verticalAlign=top;align=center;outlineConnect=0;fontColor=#000000;" vertex="1" parent="1">
                    <mxGeometry x="501" y="-100" width="78" height="77" as="geometry"/>
                </mxCell>
                <mxCell id="4" value="Salle de conf" style="shape=mxgraph.cisco.routers.router;sketch=0;html=1;pointerEvents=1;dashed=0;fillColor=#036897;strokeColor=#ffffff;strokeWidth=2;verticalLabelPosition=bottom;verticalAlign=top;align=center;outlineConnect=0;fontColor=#000000;" vertex="1" parent="1">
                    <mxGeometry x="1132" y="188" width="78" height="53" as="geometry"/>
                </mxCell>
                <mxCell id="5" value="Employés" style="shape=mxgraph.cisco.routers.router;sketch=0;html=1;pointerEvents=1;dashed=0;fillColor=#036897;strokeColor=#ffffff;strokeWidth=2;verticalLabelPosition=bottom;verticalAlign=top;align=center;outlineConnect=0;fontColor=#000000;" vertex="1" parent="1">
                    <mxGeometry x="1136" y="422" width="78" height="53" as="geometry"/>
                </mxCell>
                <mxCell id="6" value="" style="shape=mxgraph.cisco.switches.workgroup_switch;sketch=0;html=1;pointerEvents=1;dashed=0;fillColor=#036897;strokeColor=#ffffff;strokeWidth=2;verticalLabelPosition=bottom;verticalAlign=top;align=center;outlineConnect=0;fontColor=#000000;" vertex="1" parent="1">
                    <mxGeometry x="1339" y="154" width="101" height="50" as="geometry"/>
                </mxCell>
                <mxCell id="7" value="" style="shape=mxgraph.cisco.switches.workgroup_switch;sketch=0;html=1;pointerEvents=1;dashed=0;fillColor=#036897;strokeColor=#ffffff;strokeWidth=2;verticalLabelPosition=bottom;verticalAlign=top;align=center;outlineConnect=0;fontColor=#000000;" vertex="1" parent="1">
                    <mxGeometry x="1351" y="409" width="101" height="50" as="geometry"/>
                </mxCell>
                <mxCell id="8" value="" style="endArrow=none;html=1;fontColor=#000000;strokeColor=#000000;exitX=1;exitY=0.5;exitDx=0;exitDy=0;exitPerimeter=0;" edge="1" parent="1" source="4" target="6">
                    <mxGeometry width="50" height="50" relative="1" as="geometry">
                        <mxPoint x="1308" y="333" as="sourcePoint"/>
                        <mxPoint x="1358" y="283" as="targetPoint"/>
                    </mxGeometry>
                </mxCell>
                <mxCell id="9" value="" style="endArrow=none;html=1;strokeColor=#000000;fontColor=#000000;exitX=1;exitY=0.5;exitDx=0;exitDy=0;exitPerimeter=0;" edge="1" parent="1" source="5" target="7">
                    <mxGeometry width="50" height="50" relative="1" as="geometry">
                        <mxPoint x="1261" y="357" as="sourcePoint"/>
                        <mxPoint x="1311" y="307" as="targetPoint"/>
                    </mxGeometry>
                </mxCell>
                <mxCell id="10" value="" style="shape=mxgraph.cisco.computers_and_peripherals.pc;sketch=0;html=1;pointerEvents=1;dashed=0;fillColor=#036897;strokeColor=#ffffff;strokeWidth=2;verticalLabelPosition=bottom;verticalAlign=top;align=center;outlineConnect=0;fontColor=#000000;" vertex="1" parent="1">
                    <mxGeometry x="1583" y="35" width="78" height="70" as="geometry"/>
                </mxCell>
                <mxCell id="11" value="" style="shape=mxgraph.cisco.computers_and_peripherals.pc;sketch=0;html=1;pointerEvents=1;dashed=0;fillColor=#036897;strokeColor=#ffffff;strokeWidth=2;verticalLabelPosition=bottom;verticalAlign=top;align=center;outlineConnect=0;fontColor=#000000;" vertex="1" parent="1">
                    <mxGeometry x="1608" y="154" width="78" height="70" as="geometry"/>
                </mxCell>
                <mxCell id="12" value="" style="shape=mxgraph.cisco.computers_and_peripherals.sun_workstation;sketch=0;html=1;pointerEvents=1;dashed=0;fillColor=#036897;strokeColor=#ffffff;strokeWidth=2;verticalLabelPosition=bottom;verticalAlign=top;align=center;outlineConnect=0;fontColor=#000000;" vertex="1" parent="1">
                    <mxGeometry x="1608" y="362" width="85" height="67" as="geometry"/>
                </mxCell>
                <mxCell id="13" value="" style="shape=mxgraph.cisco.computers_and_peripherals.sun_workstation;sketch=0;html=1;pointerEvents=1;dashed=0;fillColor=#036897;strokeColor=#ffffff;strokeWidth=2;verticalLabelPosition=bottom;verticalAlign=top;align=center;outlineConnect=0;fontColor=#000000;" vertex="1" parent="1">
                    <mxGeometry x="1574" y="487" width="85" height="67" as="geometry"/>
                </mxCell>
                <mxCell id="14" value="" style="endArrow=none;html=1;strokeColor=#000000;fontColor=#000000;" edge="1" parent="1" source="6" target="10">
                    <mxGeometry width="50" height="50" relative="1" as="geometry">
                        <mxPoint x="1483" y="116" as="sourcePoint"/>
                        <mxPoint x="1533" y="66" as="targetPoint"/>
                    </mxGeometry>
                </mxCell>
                <mxCell id="15" value="" style="endArrow=none;html=1;strokeColor=#000000;fontColor=#000000;" edge="1" parent="1" source="6" target="11">
                    <mxGeometry width="50" height="50" relative="1" as="geometry">
                        <mxPoint x="1503" y="265" as="sourcePoint"/>
                        <mxPoint x="1553" y="215" as="targetPoint"/>
                    </mxGeometry>
                </mxCell>
                <mxCell id="16" value="" style="endArrow=none;html=1;strokeColor=#000000;fontColor=#000000;" edge="1" parent="1" source="7" target="12">
                    <mxGeometry width="50" height="50" relative="1" as="geometry">
                        <mxPoint x="1466" y="378" as="sourcePoint"/>
                        <mxPoint x="1516" y="328" as="targetPoint"/>
                    </mxGeometry>
                </mxCell>
                <mxCell id="17" value="" style="endArrow=none;html=1;strokeColor=#000000;fontColor=#000000;" edge="1" parent="1" source="7" target="13">
                    <mxGeometry width="50" height="50" relative="1" as="geometry">
                        <mxPoint x="1471" y="542" as="sourcePoint"/>
                        <mxPoint x="1521" y="492" as="targetPoint"/>
                    </mxGeometry>
                </mxCell>
                <mxCell id="18" value="Serveurs internes" style="shape=mxgraph.cisco.routers.router;sketch=0;html=1;pointerEvents=1;dashed=0;fillColor=#036897;strokeColor=#ffffff;strokeWidth=2;verticalLabelPosition=bottom;verticalAlign=top;align=center;outlineConnect=0;fontColor=#000000;" vertex="1" parent="1">
                    <mxGeometry x="762" y="534" width="78" height="53" as="geometry"/>
                </mxCell>
                <mxCell id="19" value="Fichiers" style="shape=mxgraph.cisco.servers.standard_host;sketch=0;html=1;pointerEvents=1;dashed=0;fillColor=#036897;strokeColor=#ffffff;strokeWidth=2;verticalLabelPosition=bottom;verticalAlign=top;align=center;outlineConnect=0;fontColor=#000000;" vertex="1" parent="1">
                    <mxGeometry x="882" y="851" width="43" height="62" as="geometry"/>
                </mxCell>
                <mxCell id="20" value="Active Directory" style="shape=mxgraph.cisco.servers.standard_host;sketch=0;html=1;pointerEvents=1;dashed=0;fillColor=#036897;strokeColor=#ffffff;strokeWidth=2;verticalLabelPosition=bottom;verticalAlign=top;align=center;outlineConnect=0;fontColor=#000000;" vertex="1" parent="1">
                    <mxGeometry x="737" y="857" width="43" height="62" as="geometry"/>
                </mxCell>
                <mxCell id="22" value="" style="shape=mxgraph.cisco.switches.workgroup_switch;sketch=0;html=1;pointerEvents=1;dashed=0;fillColor=#036897;strokeColor=#ffffff;strokeWidth=2;verticalLabelPosition=bottom;verticalAlign=top;align=center;outlineConnect=0;fontColor=#000000;" vertex="1" parent="1">
                    <mxGeometry x="754" y="678" width="101" height="50" as="geometry"/>
                </mxCell>
                <mxCell id="23" value="" style="endArrow=none;html=1;strokeColor=#000000;fontColor=#000000;exitX=0.279;exitY=-0.065;exitDx=0;exitDy=0;exitPerimeter=0;" edge="1" parent="1" source="20" target="22">
                    <mxGeometry width="50" height="50" relative="1" as="geometry">
                        <mxPoint x="697" y="836" as="sourcePoint"/>
                        <mxPoint x="747" y="786" as="targetPoint"/>
                    </mxGeometry>
                </mxCell>
                <mxCell id="24" value="" style="endArrow=none;html=1;strokeColor=#000000;fontColor=#000000;exitX=0.5;exitY=0;exitDx=0;exitDy=0;exitPerimeter=0;" edge="1" parent="1" source="19" target="22">
                    <mxGeometry width="50" height="50" relative="1" as="geometry">
                        <mxPoint x="854" y="824" as="sourcePoint"/>
                        <mxPoint x="904" y="774" as="targetPoint"/>
                    </mxGeometry>
                </mxCell>
                <mxCell id="25" value="" style="endArrow=none;html=1;strokeColor=#000000;fontColor=#000000;" edge="1" parent="1" source="22" target="18">
                    <mxGeometry width="50" height="50" relative="1" as="geometry">
                        <mxPoint x="651" y="673" as="sourcePoint"/>
                        <mxPoint x="701" y="623" as="targetPoint"/>
                    </mxGeometry>
                </mxCell>
                <mxCell id="26" value="DMZ Interne" style="shape=mxgraph.cisco.routers.router;sketch=0;html=1;pointerEvents=1;dashed=0;fillColor=#036897;strokeColor=#ffffff;strokeWidth=2;verticalLabelPosition=bottom;verticalAlign=top;align=center;outlineConnect=0;fontColor=#000000;" vertex="1" parent="1">
                    <mxGeometry x="486" y="526" width="78" height="53" as="geometry"/>
                </mxCell>
                <mxCell id="28" value="" style="ellipse;shape=cloud;whiteSpace=wrap;html=1;fontSize=15;fontColor=#ffffff;fillColor=#647687;strokeColor=#314354;" vertex="1" parent="1">
                    <mxGeometry x="-97" y="221" width="120" height="80" as="geometry"/>
                </mxCell>
                <mxCell id="29" value="" style="endArrow=none;html=1;strokeColor=#000000;fontSize=15;fontColor=#000000;exitX=0.875;exitY=0.5;exitDx=0;exitDy=0;exitPerimeter=0;entryX=0;entryY=0.5;entryDx=0;entryDy=0;entryPerimeter=0;" edge="1" parent="1" source="28" target="27">
                    <mxGeometry width="50" height="50" relative="1" as="geometry">
                        <mxPoint x="174" y="523" as="sourcePoint"/>
                        <mxPoint x="224" y="473" as="targetPoint"/>
                    </mxGeometry>
                </mxCell>
                <mxCell id="30" value="" style="shape=mxgraph.cisco.switches.workgroup_switch;sketch=0;html=1;pointerEvents=1;dashed=0;fillColor=#036897;strokeColor=#ffffff;strokeWidth=2;verticalLabelPosition=bottom;verticalAlign=top;align=center;outlineConnect=0;fontSize=15;fontColor=#000000;" vertex="1" parent="1">
                    <mxGeometry x="292" y="628" width="101" height="50" as="geometry"/>
                </mxCell>
                <mxCell id="31" value="VPN" style="shape=mxgraph.cisco.servers.standard_host;sketch=0;html=1;pointerEvents=1;dashed=0;fillColor=#036897;strokeColor=#ffffff;strokeWidth=2;verticalLabelPosition=bottom;verticalAlign=top;align=center;outlineConnect=0;fontSize=15;fontColor=#000000;" vertex="1" parent="1">
                    <mxGeometry x="192" y="785" width="43" height="62" as="geometry"/>
                </mxCell>
                <mxCell id="32" value="Visio" style="shape=mxgraph.cisco.servers.standard_host;sketch=0;html=1;pointerEvents=1;dashed=0;fillColor=#036897;strokeColor=#ffffff;strokeWidth=2;verticalLabelPosition=bottom;verticalAlign=top;align=center;outlineConnect=0;fontSize=15;fontColor=#000000;" vertex="1" parent="1">
                    <mxGeometry x="327" y="789" width="43" height="62" as="geometry"/>
                </mxCell>
                <mxCell id="33" value="" style="endArrow=none;html=1;strokeColor=#000000;fontSize=15;fontColor=#000000;" edge="1" parent="1" source="31" target="30">
                    <mxGeometry width="50" height="50" relative="1" as="geometry">
                        <mxPoint x="212" y="760" as="sourcePoint"/>
                        <mxPoint x="262" y="710" as="targetPoint"/>
                    </mxGeometry>
                </mxCell>
                <mxCell id="34" value="" style="endArrow=none;html=1;strokeColor=#000000;fontSize=15;fontColor=#000000;" edge="1" parent="1" source="32" target="30">
                    <mxGeometry width="50" height="50" relative="1" as="geometry">
                        <mxPoint x="390" y="769" as="sourcePoint"/>
                        <mxPoint x="440" y="719" as="targetPoint"/>
                    </mxGeometry>
                </mxCell>
                <mxCell id="35" value="" style="endArrow=none;html=1;strokeColor=#000000;fontSize=15;fontColor=#000000;" edge="1" parent="1" source="30" target="26">
                    <mxGeometry width="50" height="50" relative="1" as="geometry">
                        <mxPoint x="277" y="619" as="sourcePoint"/>
                        <mxPoint x="327" y="569" as="targetPoint"/>
                    </mxGeometry>
                </mxCell>
                <mxCell id="36" value="DMZ Externe" style="shape=mxgraph.cisco.routers.router;sketch=0;html=1;pointerEvents=1;dashed=0;fillColor=#a20025;strokeColor=#6F0000;strokeWidth=2;verticalLabelPosition=bottom;verticalAlign=top;align=center;outlineConnect=0;fontSize=15;fontColor=#000000;" vertex="1" parent="1">
                    <mxGeometry x="161" y="520" width="78" height="53" as="geometry"/>
                </mxCell>
                <mxCell id="37" value="" style="endArrow=none;html=1;strokeColor=#000000;fontSize=15;fontColor=#000000;" edge="1" parent="1" source="30" target="36">
                    <mxGeometry width="50" height="50" relative="1" as="geometry">
                        <mxPoint x="174" y="637" as="sourcePoint"/>
                        <mxPoint x="224" y="587" as="targetPoint"/>
                    </mxGeometry>
                </mxCell>
                <mxCell id="38" value="" style="endArrow=none;html=1;strokeColor=#000000;fontSize=15;fontColor=#000000;" edge="1" parent="1" source="36" target="27">
                    <mxGeometry width="50" height="50" relative="1" as="geometry">
                        <mxPoint x="113" y="506" as="sourcePoint"/>
                        <mxPoint x="163" y="456" as="targetPoint"/>
                    </mxGeometry>
                </mxCell>
                <mxCell id="39" value="" style="shape=mxgraph.cisco.switches.workgroup_switch;sketch=0;html=1;pointerEvents=1;dashed=0;fillColor=#008a00;strokeColor=#005700;strokeWidth=2;verticalLabelPosition=bottom;verticalAlign=top;align=center;outlineConnect=0;fontSize=15;fontColor=#ffffff;" vertex="1" parent="1">
                    <mxGeometry x="609" y="333" width="101" height="50" as="geometry"/>
                </mxCell>
                <mxCell id="40" value="" style="endArrow=none;html=1;strokeColor=#005700;fontSize=15;fontColor=#000000;exitX=1;exitY=0.5;exitDx=0;exitDy=0;exitPerimeter=0;entryX=0;entryY=0.5;entryDx=0;entryDy=0;entryPerimeter=0;fillColor=#008a00;" edge="1" parent="1" source="27" target="39">
                    <mxGeometry width="50" height="50" relative="1" as="geometry">
                        <mxPoint x="424" y="387" as="sourcePoint"/>
                        <mxPoint x="474" y="337" as="targetPoint"/>
                    </mxGeometry>
                </mxCell>
                <mxCell id="45" value="" style="endArrow=none;html=1;strokeColor=#005700;fontSize=15;fontColor=#000000;entryX=0.5;entryY=0.98;entryDx=0;entryDy=0;entryPerimeter=0;exitX=0.12;exitY=0.1;exitDx=0;exitDy=0;exitPerimeter=0;fillColor=#008a00;" edge="1" parent="1" source="18" target="39">
                    <mxGeometry width="50" height="50" relative="1" as="geometry">
                        <mxPoint x="661" y="491" as="sourcePoint"/>
                        <mxPoint x="711" y="441" as="targetPoint"/>
                    </mxGeometry>
                </mxCell>
                <mxCell id="46" value="" style="endArrow=none;html=1;strokeColor=#005700;fontSize=15;fontColor=#000000;exitX=0.88;exitY=0.1;exitDx=0;exitDy=0;exitPerimeter=0;fillColor=#008a00;" edge="1" parent="1" source="26" target="39">
                    <mxGeometry width="50" height="50" relative="1" as="geometry">
                        <mxPoint x="509" y="496" as="sourcePoint"/>
                        <mxPoint x="559" y="446" as="targetPoint"/>
                    </mxGeometry>
                </mxCell>
                <mxCell id="47" value="Employés" style="shape=mxgraph.cisco.routers.wireless_router;sketch=0;html=1;pointerEvents=1;dashed=0;fillColor=#036897;strokeColor=#ffffff;strokeWidth=2;verticalLabelPosition=bottom;verticalAlign=top;align=center;outlineConnect=0;fontSize=15;fontColor=#000000;" vertex="1" parent="1">
                    <mxGeometry x="742" y="-107" width="78" height="77" as="geometry"/>
                </mxCell>
                <mxCell id="48" value="WLAN" style="shape=mxgraph.cisco.routers.router;sketch=0;html=1;pointerEvents=1;dashed=0;fillColor=#008a00;strokeColor=#005700;strokeWidth=2;verticalLabelPosition=bottom;verticalAlign=top;align=center;outlineConnect=0;fontSize=15;fontColor=#000000;" vertex="1" parent="1">
                    <mxGeometry x="502" y="196" width="78" height="53" as="geometry"/>
                </mxCell>
                <mxCell id="49" value="" style="endArrow=none;html=1;strokeColor=#000000;fontSize=15;fontColor=#000000;" edge="1" parent="1" source="39" target="48">
                    <mxGeometry width="50" height="50" relative="1" as="geometry">
                        <mxPoint x="605" y="312" as="sourcePoint"/>
                        <mxPoint x="655" y="262" as="targetPoint"/>
                    </mxGeometry>
                </mxCell>
                <mxCell id="53" value="Stations" style="shape=mxgraph.cisco.routers.router;sketch=0;html=1;pointerEvents=1;dashed=0;fillColor=#008a00;strokeColor=#005700;strokeWidth=2;verticalLabelPosition=bottom;verticalAlign=top;align=center;outlineConnect=0;fontSize=15;fontColor=#000000;" vertex="1" parent="1">
                    <mxGeometry x="865" y="310" width="78" height="53" as="geometry"/>
                </mxCell>
                <mxCell id="54" value="" style="endArrow=none;html=1;strokeColor=#000000;fontSize=15;fontColor=#000000;" edge="1" parent="1" source="39" target="53">
                    <mxGeometry width="50" height="50" relative="1" as="geometry">
                        <mxPoint x="795" y="288" as="sourcePoint"/>
                        <mxPoint x="845" y="238" as="targetPoint"/>
                    </mxGeometry>
                </mxCell>
                <mxCell id="57" value="" style="shape=mxgraph.cisco.servers.standard_host;sketch=0;html=1;pointerEvents=1;dashed=0;fillColor=#036897;strokeColor=#ffffff;strokeWidth=2;verticalLabelPosition=bottom;verticalAlign=top;align=center;outlineConnect=0;fontSize=15;fontColor=#000000;" vertex="1" parent="1">
                    <mxGeometry x="612" y="833" width="43" height="62" as="geometry"/>
                </mxCell>
                <mxCell id="58" value="" style="shape=mxgraph.cisco.servers.standard_host;sketch=0;html=1;pointerEvents=1;dashed=0;fillColor=#036897;strokeColor=#ffffff;strokeWidth=2;verticalLabelPosition=bottom;verticalAlign=top;align=center;outlineConnect=0;fontSize=15;fontColor=#000000;" vertex="1" parent="1">
                    <mxGeometry x="1017" y="808" width="43" height="62" as="geometry"/>
                </mxCell>
                <mxCell id="59" value="" style="shape=mxgraph.cisco.servers.standard_host;sketch=0;html=1;pointerEvents=1;dashed=0;fillColor=#036897;strokeColor=#ffffff;strokeWidth=2;verticalLabelPosition=bottom;verticalAlign=top;align=center;outlineConnect=0;fontSize=15;fontColor=#000000;" vertex="1" parent="1">
                    <mxGeometry x="1031" y="672" width="43" height="62" as="geometry"/>
                </mxCell>
                <mxCell id="60" value="" style="endArrow=none;html=1;strokeColor=#000000;fontSize=15;fontColor=#000000;" edge="1" parent="1" source="57" target="22">
                    <mxGeometry width="50" height="50" relative="1" as="geometry">
                        <mxPoint x="617" y="787" as="sourcePoint"/>
                        <mxPoint x="667" y="737" as="targetPoint"/>
                    </mxGeometry>
                </mxCell>
                <mxCell id="61" value="" style="endArrow=none;html=1;strokeColor=#000000;fontSize=15;fontColor=#000000;" edge="1" parent="1" source="22" target="58">
                    <mxGeometry width="50" height="50" relative="1" as="geometry">
                        <mxPoint x="947" y="808" as="sourcePoint"/>
                        <mxPoint x="997" y="758" as="targetPoint"/>
                    </mxGeometry>
                </mxCell>
                <mxCell id="62" value="" style="endArrow=none;html=1;strokeColor=#000000;fontSize=15;fontColor=#000000;" edge="1" parent="1" source="22" target="59">
                    <mxGeometry width="50" height="50" relative="1" as="geometry">
                        <mxPoint x="919" y="706" as="sourcePoint"/>
                        <mxPoint x="969" y="656" as="targetPoint"/>
                    </mxGeometry>
                </mxCell>
                <mxCell id="71" value="Wireless1" style="text;html=1;strokeColor=none;fillColor=none;align=center;verticalAlign=middle;whiteSpace=wrap;rounded=0;fontSize=32;fontColor=#006600;" vertex="1" parent="1">
                    <mxGeometry x="768" y="170" width="118" height="30" as="geometry"/>
                </mxCell>
                <mxCell id="83" value="" style="shape=mxgraph.cisco.switches.workgroup_switch;sketch=0;html=1;pointerEvents=1;dashed=0;fillColor=#036897;strokeColor=#ffffff;strokeWidth=2;verticalLabelPosition=bottom;verticalAlign=top;align=center;outlineConnect=0;fontSize=32;fontColor=#006600;" vertex="1" parent="1">
                    <mxGeometry x="1002" y="323.5" width="101" height="50" as="geometry"/>
                </mxCell>
                <mxCell id="84" value="" style="endArrow=none;html=1;strokeColor=#000000;fontSize=32;fontColor=#006600;" edge="1" parent="1" source="53" target="83">
                    <mxGeometry width="50" height="50" relative="1" as="geometry">
                        <mxPoint x="980" y="316" as="sourcePoint"/>
                        <mxPoint x="1030" y="266" as="targetPoint"/>
                    </mxGeometry>
                </mxCell>
                <mxCell id="85" value="" style="endArrow=none;html=1;strokeColor=#000000;fontSize=32;fontColor=#006600;" edge="1" parent="1" source="83" target="4">
                    <mxGeometry width="50" height="50" relative="1" as="geometry">
                        <mxPoint x="1081" y="330" as="sourcePoint"/>
                        <mxPoint x="1131" y="280" as="targetPoint"/>
                    </mxGeometry>
                </mxCell>
                <mxCell id="86" value="" style="endArrow=none;html=1;strokeColor=#000000;fontSize=32;fontColor=#006600;" edge="1" parent="1" source="5" target="83">
                    <mxGeometry width="50" height="50" relative="1" as="geometry">
                        <mxPoint x="1027" y="457" as="sourcePoint"/>
                        <mxPoint x="1077" y="407" as="targetPoint"/>
                    </mxGeometry>
                </mxCell>
                <mxCell id="87" value="" style="shape=mxgraph.cisco.switches.workgroup_switch;sketch=0;html=1;pointerEvents=1;dashed=0;fillColor=#036897;strokeColor=#ffffff;strokeWidth=2;verticalLabelPosition=bottom;verticalAlign=top;align=center;outlineConnect=0;fontSize=32;fontColor=#006600;" vertex="1" parent="1">
                    <mxGeometry x="484" y="62" width="101" height="50" as="geometry"/>
                </mxCell>
                <mxCell id="88" value="" style="endArrow=none;html=1;strokeColor=#000000;fontSize=32;fontColor=#006600;" edge="1" parent="1" source="87" target="2">
                    <mxGeometry width="50" height="50" relative="1" as="geometry">
                        <mxPoint x="347" y="108" as="sourcePoint"/>
                        <mxPoint x="397" y="58" as="targetPoint"/>
                    </mxGeometry>
                </mxCell>
                <mxCell id="89" value="" style="endArrow=none;html=1;strokeColor=#000000;fontSize=32;fontColor=#006600;" edge="1" parent="1" source="87" target="3">
                    <mxGeometry width="50" height="50" relative="1" as="geometry">
                        <mxPoint x="625" y="60" as="sourcePoint"/>
                        <mxPoint x="675" y="10" as="targetPoint"/>
                    </mxGeometry>
                </mxCell>
                <mxCell id="90" value="" style="endArrow=none;html=1;strokeColor=#000000;fontSize=32;fontColor=#006600;" edge="1" parent="1" source="87" target="47">
                    <mxGeometry width="50" height="50" relative="1" as="geometry">
                        <mxPoint x="668" y="88" as="sourcePoint"/>
                        <mxPoint x="718" y="38" as="targetPoint"/>
                    </mxGeometry>
                </mxCell>
                <mxCell id="91" value="" style="endArrow=none;html=1;strokeColor=#000000;fontSize=32;fontColor=#006600;" edge="1" parent="1" source="48" target="87">
                    <mxGeometry width="50" height="50" relative="1" as="geometry">
                        <mxPoint x="424" y="199" as="sourcePoint"/>
                        <mxPoint x="474" y="149" as="targetPoint"/>
                    </mxGeometry>
                </mxCell>
                <mxCell id="92" value="X/18" style="text;html=1;strokeColor=none;fillColor=none;align=center;verticalAlign=middle;whiteSpace=wrap;rounded=0;fontSize=14;fontColor=#000000;" vertex="1" parent="1">
                    <mxGeometry x="264" y="-164" width="60" height="30" as="geometry"/>
                </mxCell>
                <mxCell id="93" value="X/23" style="text;html=1;strokeColor=none;fillColor=none;align=center;verticalAlign=middle;whiteSpace=wrap;rounded=0;fontSize=14;fontColor=#000000;" vertex="1" parent="1">
                    <mxGeometry x="514" y="-169" width="60" height="30" as="geometry"/>
                </mxCell>
                <mxCell id="94" value="X/27" style="text;html=1;strokeColor=none;fillColor=none;align=center;verticalAlign=middle;whiteSpace=wrap;rounded=0;fontSize=14;fontColor=#000000;" vertex="1" parent="1">
                    <mxGeometry x="749" y="-169" width="60" height="30" as="geometry"/>
                </mxCell>
                <mxCell id="95" value="X/29" style="text;html=1;strokeColor=none;fillColor=none;align=center;verticalAlign=middle;whiteSpace=wrap;rounded=0;fontSize=14;fontColor=#000000;" vertex="1" parent="1">
                    <mxGeometry x="275" y="121" width="60" height="30" as="geometry"/>
                </mxCell>
                <mxCell id="97" value="X/29" style="text;html=1;strokeColor=none;fillColor=none;align=center;verticalAlign=middle;whiteSpace=wrap;rounded=0;fontSize=14;fontColor=#000000;" vertex="1" parent="1">
                    <mxGeometry x="462" y="801" width="60" height="30" as="geometry"/>
                </mxCell>
                <mxCell id="98" value="X/28" style="text;html=1;strokeColor=none;fillColor=none;align=center;verticalAlign=middle;whiteSpace=wrap;rounded=0;fontSize=14;fontColor=#000000;" vertex="1" parent="1">
                    <mxGeometry x="646" y="638" width="60" height="30" as="geometry"/>
                </mxCell>
                <mxCell id="99" value="X/27" style="text;html=1;strokeColor=none;fillColor=none;align=center;verticalAlign=middle;whiteSpace=wrap;rounded=0;fontSize=14;fontColor=#000000;" vertex="1" parent="1">
                    <mxGeometry x="1187" y="367" width="60" height="30" as="geometry"/>
                </mxCell>
                <mxCell id="100" value="X/29" style="text;html=1;strokeColor=none;fillColor=none;align=center;verticalAlign=middle;whiteSpace=wrap;rounded=0;fontSize=14;fontColor=#000000;" vertex="1" parent="1">
                    <mxGeometry x="1179" width="60" height="30" as="geometry"/>
                </mxCell>
                <mxCell id="101" value="X/29" style="text;html=1;strokeColor=none;fillColor=none;align=center;verticalAlign=middle;whiteSpace=wrap;rounded=0;fontSize=14;fontColor=#000000;" vertex="1" parent="1">
                    <mxGeometry x="911" y="178" width="60" height="30" as="geometry"/>
                </mxCell>
                <mxCell id="103" value="10.0.0.0/8" style="text;html=1;strokeColor=none;fillColor=none;align=center;verticalAlign=middle;whiteSpace=wrap;rounded=0;fontSize=29;fontColor=#000000;" vertex="1" parent="1">
                    <mxGeometry x="982.5" y="-157.5" width="140" height="81" as="geometry"/>
                </mxCell>
                <mxCell id="104" value=".254" style="text;html=1;strokeColor=none;fillColor=none;align=center;verticalAlign=middle;whiteSpace=wrap;rounded=0;fontSize=14;fontColor=#000000;" vertex="1" parent="1">
                    <mxGeometry x="163" y="382" width="60" height="30" as="geometry"/>
                </mxCell>
                <mxCell id="106" value="&lt;div style=&quot;&quot;&gt;&lt;span style=&quot;background-color: initial;&quot;&gt;WiFi Conférenciers : 10.255.124.0 - 10.255.125.255&lt;/span&gt;&lt;/div&gt;&lt;div style=&quot;&quot;&gt;&lt;span style=&quot;background-color: initial;&quot;&gt;Wifi Employés - 10.255.127.224 - 10.255.127.255&lt;/span&gt;&lt;span style=&quot;background-color: initial;&quot;&gt;&amp;nbsp;&lt;/span&gt;&lt;/div&gt;&lt;div style=&quot;&quot;&gt;&lt;span style=&quot;background-color: initial;&quot;&gt;Wifi Visiteurs : 10.255.0.0 - 10.255.63.255&lt;/span&gt;&lt;/div&gt;&lt;div style=&quot;&quot;&gt;&lt;span style=&quot;background-color: initial;&quot;&gt;Salle de conf : 10.255.255.184 - 10.255.255.191&lt;/span&gt;&lt;/div&gt;&lt;div style=&quot;&quot;&gt;&lt;span style=&quot;background-color: initial;&quot;&gt;Employés : 10.255.255.128 - 10.255.255.159&lt;/span&gt;&lt;/div&gt;&lt;div style=&quot;&quot;&gt;&lt;span style=&quot;background-color: initial;&quot;&gt;Serveurs internes : 10.255.255.192 - 10.255.255.207&lt;/span&gt;&lt;/div&gt;&lt;div style=&quot;&quot;&gt;&lt;span style=&quot;background-color: initial;&quot;&gt;Stations 1 : 10.255.255.216 - 10.255.255.223&lt;/span&gt;&lt;/div&gt;Wireless 1 : 10.255.255.224 - 10.255.255.231&lt;br&gt;Coeur de réseau : 10.255.255.232 - 10.255.255.239&lt;br&gt;Réseau DMZ /29 : 10.255.255.240 - 10.255.255.247&lt;br&gt;Réseau privé accès DMZ/30 10.255.25.252-10.255.255.255" style="text;html=1;strokeColor=none;fillColor=none;align=left;verticalAlign=middle;whiteSpace=wrap;rounded=0;fontSize=14;fontColor=#000000;" vertex="1" parent="1">
                    <mxGeometry x="-496" y="482" width="514" height="202" as="geometry"/>
                </mxCell>
                <mxCell id="107" value="10.255.255.240/29" style="text;html=1;strokeColor=none;fillColor=none;align=center;verticalAlign=middle;whiteSpace=wrap;rounded=0;fontSize=14;fontColor=#000000;" vertex="1" parent="1">
                    <mxGeometry x="429" y="698" width="60" height="30" as="geometry"/>
                </mxCell>
                <mxCell id="110" value="&lt;h1&gt;Méthode&lt;/h1&gt;&lt;p&gt;On commence&lt;/p&gt;&lt;p&gt;- soit par le plus gros masque, au début de l'espace d'adressage (10.0.0.0/8)&lt;/p&gt;&lt;p&gt;- soit par le plus petit, à la fin de l'espace d'adressage&lt;/p&gt;" style="text;html=1;strokeColor=#ae4132;fillColor=#fad9d5;spacing=5;spacingTop=-20;whiteSpace=wrap;overflow=hidden;rounded=0;fontSize=14;fontColor=#000000;" vertex="1" parent="1">
                    <mxGeometry x="-501.5" y="161" width="361" height="180" as="geometry"/>
                </mxCell>
                <mxCell id="111" value="Stations1" style="text;html=1;strokeColor=none;fillColor=none;align=center;verticalAlign=middle;whiteSpace=wrap;rounded=0;fontSize=32;fontColor=#006600;" vertex="1" parent="1">
                    <mxGeometry x="925" y="452" width="118" height="30" as="geometry"/>
                </mxCell>
                <mxCell id="113" value="10.255.255.224/29" style="text;html=1;strokeColor=none;fillColor=none;align=center;verticalAlign=middle;whiteSpace=wrap;rounded=0;fontSize=14;fontColor=#000000;" vertex="1" parent="1">
                    <mxGeometry x="698" y="115" width="60" height="30" as="geometry"/>
                </mxCell>
                <mxCell id="114" value="10.255.255.216/29" style="text;html=1;strokeColor=none;fillColor=none;align=center;verticalAlign=middle;whiteSpace=wrap;rounded=0;fontSize=14;fontColor=#000000;" vertex="1" parent="1">
                    <mxGeometry x="947" y="221" width="60" height="30" as="geometry"/>
                </mxCell>
                <mxCell id="115" value="10.255.255.192/28" style="text;html=1;strokeColor=none;fillColor=none;align=center;verticalAlign=middle;whiteSpace=wrap;rounded=0;fontSize=14;fontColor=#000000;" vertex="1" parent="1">
                    <mxGeometry x="934" y="585" width="60" height="30" as="geometry"/>
                </mxCell>
                <mxCell id="116" value="10.255.255.128/27" style="text;html=1;strokeColor=none;fillColor=none;align=center;verticalAlign=middle;whiteSpace=wrap;rounded=0;fontSize=14;fontColor=#000000;" vertex="1" parent="1">
                    <mxGeometry x="1202" y="537.5" width="60" height="30" as="geometry"/>
                </mxCell>
            </root>
        </mxGraphModel>
    </diagram>
</mxfile>